<svg width="16" height="16" viewBox="0 0 16 16" fill="none" xmlns="http://www.w3.org/2000/svg">
<path fill-rule="evenodd" clip-rule="evenodd" d="M8 3.45335L4.99133 5.33335H11.0087L8 3.45335ZM7.64333 2.10335C7.7503 2.03655 7.87388 2.00113 8 2.00113C8.12612 2.00113 8.2497 2.03655 8.35667 2.10335L13.6667 5.42269C14.2407 5.78069 13.9867 6.66669 13.31 6.66669H12.6667V12.6667H14V14H2V12.6667H3.33333V6.66669H2.69C2.01333 6.66669 1.75933 5.78069 2.33333 5.42269L7.64333 2.10335ZM4.66667 12.6667H7.33333V6.66669H4.66667V12.6667ZM8.66667 12.6667H11.3333V6.66669H8.66667V12.6667Z" fill="#5A5E58"/>
</svg>
